<mxfile host="app.diagrams.net" agent="Mozilla/5.0 (Windows NT 10.0; Win64; x64) AppleWebKit/537.36 (KHTML, like Gecko) Chrome/131.0.0.0 Safari/537.36" version="24.8.6">
  <diagram name="PÃ¡gina-1" id="wS-mD7agUsBBkDIwm13g">
    <mxGraphModel dx="1120" dy="506" grid="1" gridSize="10" guides="1" tooltips="1" connect="1" arrows="1" fold="1" page="1" pageScale="1" pageWidth="827" pageHeight="1169" math="0" shadow="0">
      <root>
        <mxCell id="0" />
        <mxCell id="1" parent="0" />
        <mxCell id="VZAkJnKAPna_WAZoHWe7-1" value="&amp;lt;&amp;lt;Abstract&amp;gt;&amp;gt;&lt;div&gt;Persona&lt;/div&gt;" style="swimlane;fontStyle=1;align=center;verticalAlign=top;childLayout=stackLayout;horizontal=1;startSize=40;horizontalStack=0;resizeParent=1;resizeParentMax=0;resizeLast=0;collapsible=1;marginBottom=0;whiteSpace=wrap;html=1;" parent="1" vertex="1">
          <mxGeometry x="280" y="40" width="250" height="92" as="geometry" />
        </mxCell>
        <mxCell id="VZAkJnKAPna_WAZoHWe7-2" value="-id: long &amp;lt;&amp;lt;PK&amp;gt;&amp;gt;&lt;div&gt;-nif: String &amp;lt;&amp;lt;NOT NULL&amp;gt;&amp;gt;&amp;lt;&amp;lt;UNIQUE&amp;gt;&amp;gt;&lt;/div&gt;" style="text;strokeColor=none;fillColor=none;align=left;verticalAlign=top;spacingLeft=4;spacingRight=4;overflow=hidden;rotatable=0;points=[[0,0.5],[1,0.5]];portConstraint=eastwest;whiteSpace=wrap;html=1;" parent="VZAkJnKAPna_WAZoHWe7-1" vertex="1">
          <mxGeometry y="40" width="250" height="44" as="geometry" />
        </mxCell>
        <mxCell id="VZAkJnKAPna_WAZoHWe7-3" value="" style="line;strokeWidth=1;fillColor=none;align=left;verticalAlign=middle;spacingTop=-1;spacingLeft=3;spacingRight=3;rotatable=0;labelPosition=right;points=[];portConstraint=eastwest;strokeColor=inherit;" parent="VZAkJnKAPna_WAZoHWe7-1" vertex="1">
          <mxGeometry y="84" width="250" height="8" as="geometry" />
        </mxCell>
        <mxCell id="VZAkJnKAPna_WAZoHWe7-5" value="Cliente" style="swimlane;fontStyle=1;align=center;verticalAlign=top;childLayout=stackLayout;horizontal=1;startSize=26;horizontalStack=0;resizeParent=1;resizeParentMax=0;resizeLast=0;collapsible=1;marginBottom=0;whiteSpace=wrap;html=1;" parent="1" vertex="1">
          <mxGeometry x="155" y="200" width="250" height="78" as="geometry" />
        </mxCell>
        <mxCell id="VZAkJnKAPna_WAZoHWe7-6" value="-email: String &amp;lt;&amp;lt;NOT NULL&amp;gt;&amp;gt;&amp;lt;&amp;lt;UNIQUE&amp;gt;&amp;gt;&lt;div&gt;-historialPedidos: long [*]&lt;/div&gt;" style="text;strokeColor=none;fillColor=none;align=left;verticalAlign=top;spacingLeft=4;spacingRight=4;overflow=hidden;rotatable=0;points=[[0,0.5],[1,0.5]];portConstraint=eastwest;whiteSpace=wrap;html=1;" parent="VZAkJnKAPna_WAZoHWe7-5" vertex="1">
          <mxGeometry y="26" width="250" height="44" as="geometry" />
        </mxCell>
        <mxCell id="VZAkJnKAPna_WAZoHWe7-7" value="" style="line;strokeWidth=1;fillColor=none;align=left;verticalAlign=middle;spacingTop=-1;spacingLeft=3;spacingRight=3;rotatable=0;labelPosition=right;points=[];portConstraint=eastwest;strokeColor=inherit;" parent="VZAkJnKAPna_WAZoHWe7-5" vertex="1">
          <mxGeometry y="70" width="250" height="8" as="geometry" />
        </mxCell>
        <mxCell id="VZAkJnKAPna_WAZoHWe7-9" value="Dependiente" style="swimlane;fontStyle=1;align=center;verticalAlign=top;childLayout=stackLayout;horizontal=1;startSize=26;horizontalStack=0;resizeParent=1;resizeParentMax=0;resizeLast=0;collapsible=1;marginBottom=0;whiteSpace=wrap;html=1;" parent="1" vertex="1">
          <mxGeometry x="500" y="200" width="240" height="78" as="geometry" />
        </mxCell>
        <mxCell id="VZAkJnKAPna_WAZoHWe7-10" value="-nombre: String &amp;lt;&amp;lt;NOT NULL&amp;gt;&amp;gt;&lt;div&gt;-fecha_contratacion: date &amp;lt;&amp;lt;NOT NULL&amp;gt;&amp;gt;&lt;/div&gt;" style="text;strokeColor=none;fillColor=none;align=left;verticalAlign=top;spacingLeft=4;spacingRight=4;overflow=hidden;rotatable=0;points=[[0,0.5],[1,0.5]];portConstraint=eastwest;whiteSpace=wrap;html=1;" parent="VZAkJnKAPna_WAZoHWe7-9" vertex="1">
          <mxGeometry y="26" width="240" height="44" as="geometry" />
        </mxCell>
        <mxCell id="VZAkJnKAPna_WAZoHWe7-11" value="" style="line;strokeWidth=1;fillColor=none;align=left;verticalAlign=middle;spacingTop=-1;spacingLeft=3;spacingRight=3;rotatable=0;labelPosition=right;points=[];portConstraint=eastwest;strokeColor=inherit;" parent="VZAkJnKAPna_WAZoHWe7-9" vertex="1">
          <mxGeometry y="70" width="240" height="8" as="geometry" />
        </mxCell>
        <mxCell id="VZAkJnKAPna_WAZoHWe7-13" value="Pedido" style="swimlane;fontStyle=1;align=center;verticalAlign=top;childLayout=stackLayout;horizontal=1;startSize=26;horizontalStack=0;resizeParent=1;resizeParentMax=0;resizeLast=0;collapsible=1;marginBottom=0;whiteSpace=wrap;html=1;" parent="1" vertex="1">
          <mxGeometry x="150" y="410" width="260" height="128" as="geometry" />
        </mxCell>
        <mxCell id="VZAkJnKAPna_WAZoHWe7-14" value="- id: long &amp;lt;&amp;lt;PK&amp;gt;&amp;gt;&lt;div&gt;- fecha: date &amp;lt;&amp;lt;NOT NULL&amp;gt;&amp;gt;&lt;/div&gt;&lt;div&gt;- id_cliente: long &amp;lt;&amp;lt;NOT NULL&amp;gt;&amp;gt;&lt;/div&gt;&lt;div&gt;- lista_productos: long [1..*] &amp;lt;&amp;lt;NOT NULL&amp;gt;&amp;gt;&lt;/div&gt;&lt;div&gt;- lista_cantidades: long [1..*] &amp;lt;&amp;lt;NOT NULL&amp;gt;&amp;gt;&lt;/div&gt;" style="text;strokeColor=none;fillColor=none;align=left;verticalAlign=top;spacingLeft=4;spacingRight=4;overflow=hidden;rotatable=0;points=[[0,0.5],[1,0.5]];portConstraint=eastwest;whiteSpace=wrap;html=1;" parent="VZAkJnKAPna_WAZoHWe7-13" vertex="1">
          <mxGeometry y="26" width="260" height="94" as="geometry" />
        </mxCell>
        <mxCell id="VZAkJnKAPna_WAZoHWe7-15" value="" style="line;strokeWidth=1;fillColor=none;align=left;verticalAlign=middle;spacingTop=-1;spacingLeft=3;spacingRight=3;rotatable=0;labelPosition=right;points=[];portConstraint=eastwest;strokeColor=inherit;" parent="VZAkJnKAPna_WAZoHWe7-13" vertex="1">
          <mxGeometry y="120" width="260" height="8" as="geometry" />
        </mxCell>
        <mxCell id="VZAkJnKAPna_WAZoHWe7-17" value="Producto" style="swimlane;fontStyle=1;align=center;verticalAlign=top;childLayout=stackLayout;horizontal=1;startSize=26;horizontalStack=0;resizeParent=1;resizeParentMax=0;resizeLast=0;collapsible=1;marginBottom=0;whiteSpace=wrap;html=1;" parent="1" vertex="1">
          <mxGeometry x="510" y="419" width="240" height="110" as="geometry" />
        </mxCell>
        <mxCell id="VZAkJnKAPna_WAZoHWe7-18" value="- id: long &amp;lt;&amp;lt;PK&amp;gt;&amp;gt;&lt;div&gt;- nombreProducto: String &amp;lt;&amp;lt;NOT NULL&amp;gt;&amp;gt;&lt;/div&gt;&lt;div&gt;- precio: double &amp;lt;&amp;lt;NOT NULL&amp;gt;&amp;gt;&lt;/div&gt;&lt;div&gt;- categorias: String [1..*] &amp;lt;&amp;lt;NOT NULL&amp;gt;&amp;gt;&lt;/div&gt;" style="text;strokeColor=none;fillColor=none;align=left;verticalAlign=top;spacingLeft=4;spacingRight=4;overflow=hidden;rotatable=0;points=[[0,0.5],[1,0.5]];portConstraint=eastwest;whiteSpace=wrap;html=1;" parent="VZAkJnKAPna_WAZoHWe7-17" vertex="1">
          <mxGeometry y="26" width="240" height="64" as="geometry" />
        </mxCell>
        <mxCell id="VZAkJnKAPna_WAZoHWe7-19" value="" style="line;strokeWidth=1;fillColor=none;align=left;verticalAlign=middle;spacingTop=-1;spacingLeft=3;spacingRight=3;rotatable=0;labelPosition=right;points=[];portConstraint=eastwest;strokeColor=inherit;" parent="VZAkJnKAPna_WAZoHWe7-17" vertex="1">
          <mxGeometry y="90" width="240" height="20" as="geometry" />
        </mxCell>
        <mxCell id="VZAkJnKAPna_WAZoHWe7-25" value="Extends" style="endArrow=block;endSize=16;endFill=0;html=1;rounded=0;exitX=0.75;exitY=0;exitDx=0;exitDy=0;entryX=0.25;entryY=1;entryDx=0;entryDy=0;" parent="1" source="VZAkJnKAPna_WAZoHWe7-5" target="VZAkJnKAPna_WAZoHWe7-1" edge="1">
          <mxGeometry x="-0.2683" width="160" relative="1" as="geometry">
            <mxPoint x="300" y="720" as="sourcePoint" />
            <mxPoint x="330" y="120" as="targetPoint" />
            <mxPoint as="offset" />
          </mxGeometry>
        </mxCell>
        <mxCell id="g33ndkOuguIo9Obq6oil-2" value="Extends" style="endArrow=block;endSize=16;endFill=0;html=1;rounded=0;exitX=0.25;exitY=0;exitDx=0;exitDy=0;entryX=0.75;entryY=1;entryDx=0;entryDy=0;" edge="1" parent="1" source="VZAkJnKAPna_WAZoHWe7-9" target="VZAkJnKAPna_WAZoHWe7-1">
          <mxGeometry width="160" relative="1" as="geometry">
            <mxPoint x="450" y="342" as="sourcePoint" />
            <mxPoint x="530" y="140" as="targetPoint" />
            <Array as="points">
              <mxPoint x="560" y="170" />
              <mxPoint x="468" y="170" />
            </Array>
          </mxGeometry>
        </mxCell>
        <mxCell id="g33ndkOuguIo9Obq6oil-3" value="" style="endArrow=block;startArrow=block;endFill=1;startFill=1;html=1;rounded=0;exitX=0.5;exitY=0;exitDx=0;exitDy=0;entryX=0.5;entryY=1;entryDx=0;entryDy=0;" edge="1" parent="1" source="VZAkJnKAPna_WAZoHWe7-13" target="VZAkJnKAPna_WAZoHWe7-5">
          <mxGeometry width="160" relative="1" as="geometry">
            <mxPoint x="220" y="350" as="sourcePoint" />
            <mxPoint x="380" y="350" as="targetPoint" />
          </mxGeometry>
        </mxCell>
        <mxCell id="g33ndkOuguIo9Obq6oil-4" value="" style="endArrow=open;endFill=1;endSize=12;html=1;rounded=0;" edge="1" parent="1" source="VZAkJnKAPna_WAZoHWe7-13" target="VZAkJnKAPna_WAZoHWe7-17">
          <mxGeometry width="160" relative="1" as="geometry">
            <mxPoint x="330" y="670" as="sourcePoint" />
            <mxPoint x="490" y="670" as="targetPoint" />
          </mxGeometry>
        </mxCell>
        <mxCell id="g33ndkOuguIo9Obq6oil-7" value="1" style="text;html=1;align=center;verticalAlign=middle;whiteSpace=wrap;rounded=0;" vertex="1" parent="1">
          <mxGeometry x="260" y="280" width="60" height="30" as="geometry" />
        </mxCell>
        <mxCell id="g33ndkOuguIo9Obq6oil-8" value="N" style="text;html=1;align=center;verticalAlign=middle;whiteSpace=wrap;rounded=0;" vertex="1" parent="1">
          <mxGeometry x="260" y="370" width="60" height="30" as="geometry" />
        </mxCell>
        <mxCell id="g33ndkOuguIo9Obq6oil-9" value="M" style="text;html=1;align=center;verticalAlign=middle;whiteSpace=wrap;rounded=0;" vertex="1" parent="1">
          <mxGeometry x="390" y="480" width="60" height="30" as="geometry" />
        </mxCell>
        <mxCell id="g33ndkOuguIo9Obq6oil-10" value="N" style="text;html=1;align=center;verticalAlign=middle;whiteSpace=wrap;rounded=0;" vertex="1" parent="1">
          <mxGeometry x="470" y="480" width="60" height="30" as="geometry" />
        </mxCell>
        <mxCell id="g33ndkOuguIo9Obq6oil-11" value="ListaProductos" style="text;html=1;align=center;verticalAlign=middle;whiteSpace=wrap;rounded=0;" vertex="1" parent="1">
          <mxGeometry x="430" y="436" width="60" height="30" as="geometry" />
        </mxCell>
        <mxCell id="g33ndkOuguIo9Obq6oil-12" value="HistorialPedidos" style="text;html=1;align=center;verticalAlign=middle;whiteSpace=wrap;rounded=0;" vertex="1" parent="1">
          <mxGeometry x="200" y="330" width="60" height="30" as="geometry" />
        </mxCell>
      </root>
    </mxGraphModel>
  </diagram>
</mxfile>
